<svg width="82" height="107" viewBox="0 0 82 107" fill="none" xmlns="http://www.w3.org/2000/svg">
<path d="M71.5409 36.7848H65.3998V24.856C65.3998 11.3953 54.6675 0.205307 41.2068 0.00135778C37.961 -0.0327442 34.7405 0.575846 31.731 1.79206C28.7214 3.00827 25.9823 4.80805 23.6715 7.08768C21.3607 9.36732 19.5239 12.0817 18.2669 15.0745C17.0099 18.0672 16.3576 21.2791 16.3476 24.5251V36.7848H10.2201C7.51215 36.7931 4.91748 37.8726 3.00264 39.7874C1.08781 41.7022 0.00836722 44.2969 0 47.0049V96.0524C0.00836722 98.7604 1.08781 101.355 3.00264 103.27C4.91748 105.185 7.51215 106.264 10.2201 106.273H71.5409C74.2484 106.264 76.8427 105.185 78.7568 103.27C80.6709 101.355 81.7493 98.76 81.7565 96.0524V47.0049C81.7493 44.2973 80.6709 41.7027 78.7568 39.7877C76.8427 37.8727 74.2484 36.7931 71.5409 36.7848V36.7848ZM44.4609 68.6688V86.2357C44.4669 87.1658 44.119 88.0635 43.4879 88.7468C42.8568 89.4301 41.9895 89.848 41.0618 89.9158C40.5775 89.9385 40.0936 89.8627 39.6394 89.693C39.1852 89.5233 38.7702 89.2633 38.4194 88.9286C38.0686 88.5939 37.7893 88.1915 37.5985 87.7458C37.4076 87.3 37.3092 86.8202 37.3091 86.3354V68.6598C35.6511 67.8512 34.3161 66.5046 33.5219 64.8396C32.7277 63.1747 32.5212 61.2897 32.9361 59.4923C33.351 57.6949 34.3629 56.0912 35.8065 54.9429C37.2502 53.7945 39.0404 53.1693 40.885 53.1693C42.7297 53.1693 44.5199 53.7945 45.9636 54.9429C47.4072 56.0912 48.419 57.6949 48.834 59.4923C49.2489 61.2897 49.0424 63.1747 48.2482 64.8396C47.454 66.5046 46.119 67.8512 44.4609 68.6598V68.6688ZM58.257 36.7848H23.4995V24.5251C23.4995 19.9178 25.3298 15.4992 28.5876 12.2413C31.8455 8.98344 36.2641 7.15319 40.8714 7.15319C45.4788 7.15319 49.8974 8.98344 53.1553 12.2413C56.4131 15.4992 58.2434 19.9178 58.2434 24.5251L58.257 36.7848Z" fill="#2B44FF"/>
</svg>
